<svg width="4069" height="600" viewBox="0 0 4069 600" fill="none" xmlns="http://www.w3.org/2000/svg">
<path d="M343.688 309.829L550.213 512.587H137.164L343.688 309.829Z" fill="#FF2638"/>
<path d="M137.164 106.551L343.688 309.827L550.213 106.551H137.164Z" fill="#FFC600"/>
<path d="M343.689 309.827L550.214 512.585L756.738 309.827L550.214 106.551L343.689 309.827Z" fill="#0079F2"/>
<path d="M3873.75 202.759C3873.75 204.827 3872.2 205.862 3870.13 205.862C3869.09 205.862 3868.57 205.345 3867.54 204.827C3852.53 187.241 3827.68 173.793 3793.52 173.793C3719.5 173.793 3677.58 233.276 3677.58 305.689C3677.58 378.103 3719.5 437.069 3793.52 437.069C3828.2 437.069 3855.11 425.172 3872.2 403.965C3873.23 402.414 3875.82 402.414 3876.85 403.448C3877.37 403.965 3877.89 405 3877.89 406.034V428.276C3877.89 429.827 3878.92 431.379 3880.48 431.379H3927.58C3929.13 431.379 3930.69 430.345 3930.69 428.276V70.8619C3930.69 69.3102 3929.13 67.7585 3927.58 67.7585H3876.85C3875.3 67.7585 3873.75 69.3102 3873.75 70.8619V202.759ZM3876.34 305.689C3876.34 350.689 3849.94 386.379 3805.94 386.379C3761.95 386.379 3735.55 350.689 3735.55 305.689C3735.55 259.655 3762.46 225 3805.94 225C3849.42 225 3876.34 259.655 3876.34 305.689ZM3663.08 180.517C3663.08 178.965 3662.05 177.931 3660.5 177.414C3658.94 177.414 3656.87 177.414 3654.8 177.414C3619.09 177.414 3598.38 191.896 3587 205.345C3585.44 206.896 3583.37 206.896 3581.82 205.862C3581.3 205.345 3580.78 204.31 3580.78 203.793V183.103C3580.78 181.552 3579.75 180 3577.68 180H3530.58C3529.02 180 3527.47 181.552 3527.47 183.103V428.793C3527.47 430.345 3528.51 431.896 3530.06 431.896H3581.82C3583.37 431.896 3584.92 430.345 3584.92 428.793V301.034C3584.92 252.414 3609.25 231.207 3649.63 231.207C3653.25 231.207 3656.87 231.724 3659.46 231.724C3661.01 231.724 3662.57 230.689 3662.57 229.138L3663.08 180.517ZM3419.81 313.448C3421.36 313.448 3422.91 314.483 3423.43 316.034V328.965C3423.43 363.103 3400.66 392.069 3354.59 392.069C3327.16 392.069 3310.08 382.758 3310.08 358.965C3310.08 341.379 3321.46 328.448 3357.18 323.276L3419.81 313.448ZM3342.69 437.069C3378.4 437.069 3405.32 426.724 3422.91 406.034C3424.47 404.483 3426.54 404.483 3428.09 406.034C3428.61 406.552 3429.13 407.586 3429.13 408.103C3429.13 415.862 3430.16 423.62 3432.23 431.379H3482.44C3483.99 431.379 3485.54 429.827 3485.54 428.276C3485.54 427.758 3485.54 427.758 3485.54 427.241C3481.92 413.276 3479.85 398.793 3479.85 383.793V267.931C3479.85 210.517 3445.17 173.793 3371.67 173.793C3298.17 173.793 3267.12 212.586 3261.42 255.517C3261.42 257.069 3262.46 258.621 3264.01 258.621H3314.74C3316.29 258.621 3317.32 257.586 3317.84 256.034C3322.5 234.31 3340.1 221.379 3370.64 221.379C3404.8 221.379 3424.47 236.896 3424.47 267.414V268.965C3424.47 270.517 3423.43 271.552 3421.88 272.069L3352 281.896C3285.75 291.207 3255.73 318.62 3255.73 361.551C3255.73 404.483 3280.57 437.069 3342.69 437.069ZM3102.52 437.069C3182.75 437.069 3232.95 376.552 3232.95 305.689C3232.95 234.827 3182.75 173.793 3102.52 173.793C3022.29 173.793 2972.6 234.827 2972.6 305.689C2972.6 376.552 3022.81 437.069 3102.52 437.069ZM3030.05 305.689C3030.05 256.552 3061.11 225 3102.52 225C3143.93 225 3175.5 257.069 3175.5 305.689C3175.5 354.31 3144.44 386.379 3102.52 386.379C3060.59 386.379 3030.05 354.31 3030.05 305.689ZM2760.9 204.827C2759.86 206.379 2757.27 206.379 2756.24 205.345C2755.72 204.827 2755.2 203.793 2755.2 203.276V71.3792C2755.2 69.8274 2753.65 68.2757 2752.1 68.2757H2700.34C2698.79 68.2757 2697.23 69.8274 2697.23 71.3792V428.793C2697.23 430.345 2698.79 431.896 2700.34 431.896H2747.44C2748.99 431.896 2750.55 430.345 2750.55 428.793V406.034C2750.55 403.965 2752.1 402.931 2754.17 402.931C2755.2 402.931 2755.72 403.448 2756.76 403.965C2773.84 425.172 2800.75 437.069 2835.43 437.069C2909.97 437.069 2951.89 377.586 2951.89 305.689C2951.89 233.793 2909.97 173.793 2835.43 173.793C2801.27 173.793 2775.91 187.241 2760.9 204.827ZM2753.13 305.689C2753.13 259.655 2779.53 225 2823.53 225C2867.52 225 2893.92 259.655 2893.92 305.689C2893.92 350.689 2867.01 386.379 2823.53 386.379C2780.05 386.379 2753.13 350.689 2753.13 305.689ZM2649.1 383.793C2649.1 382.241 2647.54 380.689 2645.99 380.689H2644.95C2640.3 381.724 2635.64 382.241 2630.98 382.241C2611.31 382.241 2603.03 372.414 2603.03 352.758V228.621C2603.03 227.069 2604.58 225.517 2606.13 225.517H2647.02C2648.58 225.517 2650.13 224.483 2650.13 222.931V183.103C2650.13 181.552 2648.58 180 2647.02 180H2606.13C2604.58 180 2603.03 178.448 2603.03 176.896V117.414C2603.03 115.862 2601.48 114.31 2599.92 114.31H2548.16C2546.61 114.31 2545.06 115.862 2545.06 117.414V176.896C2545.06 178.448 2543.5 180 2541.95 180H2510.38C2508.82 180 2507.27 181.552 2507.27 183.103V223.448C2507.27 225 2508.31 226.551 2510.38 226.551H2542.47C2544.02 226.551 2545.57 227.586 2545.57 229.655V359.483C2545.57 407.069 2567.83 433.448 2619.07 433.448C2628.39 433.448 2637.71 432.931 2647.02 430.862C2648.06 430.345 2649.1 429.31 2649.1 428.276V383.793ZM2243.29 305.689C2243.29 378.103 2294.54 437.069 2368.55 437.069C2441.02 437.069 2478.8 387.931 2487.08 343.448C2487.08 341.896 2486.57 340.345 2484.5 340.345H2430.67C2429.11 340.345 2428.08 341.379 2427.56 342.414C2420.31 369.31 2395.47 387.414 2367.52 386.379C2326.63 386.379 2300.23 352.758 2300.23 305.689C2300.23 258.621 2326.11 225 2367.52 225C2394.95 223.965 2419.8 242.069 2427.04 268.965C2427.56 270.517 2428.6 271.034 2430.15 271.034H2483.46C2485.01 271.034 2486.57 270 2486.57 268.448V267.931C2478.29 223.965 2441.02 174.31 2368.04 174.31C2294.54 173.793 2243.29 232.758 2243.29 305.689ZM2146.5 324.827C2146.5 366.207 2124.24 387.931 2088.53 387.931C2053.85 387.931 2039.87 365.172 2039.87 330.517V182.586C2039.87 181.034 2038.32 179.483 2036.77 179.483H1985.01C1983.46 179.483 1981.9 181.034 1981.9 182.586V338.276C1981.9 396.724 2013.48 437.069 2074.04 437.069C2107.68 437.069 2130.97 424.138 2143.91 408.62C2145.47 407.069 2147.54 407.069 2149.09 408.62C2149.61 409.138 2150.12 410.172 2150.12 410.689V428.276C2150.12 429.827 2151.68 431.379 2153.23 431.379H2200.33C2201.88 431.379 2203.44 430.345 2203.44 428.276V182.586C2203.44 181.034 2201.88 179.483 2200.33 179.483H2148.57C2147.02 179.483 2145.47 181.034 2145.47 182.586L2146.5 324.827ZM1880.97 202.759C1880.97 204.827 1879.42 205.862 1877.35 205.862C1876.31 205.862 1875.79 205.345 1874.76 204.827C1859.75 187.241 1834.9 173.793 1800.74 173.793C1726.72 173.793 1684.8 233.276 1684.8 305.689C1684.8 378.103 1726.72 437.069 1800.74 437.069C1835.42 437.069 1862.34 425.172 1879.42 403.965C1880.45 402.414 1883.04 402.414 1884.07 403.448C1884.59 403.965 1885.11 405 1885.11 405.517V427.758C1885.11 429.31 1886.66 430.862 1888.22 430.862H1935.32C1936.87 430.862 1938.42 429.827 1938.42 427.758V70.3447C1938.42 68.793 1936.87 67.2412 1935.32 67.2412H1883.56C1882 67.2412 1880.45 68.793 1880.45 70.3447L1880.97 202.759ZM1883.04 305.689C1883.04 350.689 1856.64 386.379 1812.65 386.379C1768.65 386.379 1742.25 350.689 1742.25 305.689C1742.25 259.655 1769.17 225 1812.65 225C1856.12 225 1883.04 259.655 1883.04 305.689ZM1531.07 437.069C1611.3 437.069 1661.5 376.552 1661.5 305.689C1661.5 234.827 1611.3 173.793 1531.07 173.793C1450.84 173.793 1401.15 234.827 1401.15 305.689C1401.15 376.552 1451.36 437.069 1531.07 437.069ZM1458.6 305.689C1458.6 256.552 1489.66 225 1531.07 225C1572.48 225 1604.05 257.069 1604.05 305.689C1604.05 354.31 1572.99 386.379 1531.07 386.379C1489.14 386.379 1458.6 354.31 1458.6 305.689ZM1394.94 180.517C1394.94 178.965 1393.9 177.931 1392.35 177.414C1390.28 177.414 1388.73 177.414 1387.17 177.414C1351.46 177.414 1330.76 191.896 1319.37 205.345C1317.81 206.896 1315.74 206.896 1314.19 205.862C1313.67 205.345 1313.16 204.31 1313.16 203.793V183.103C1313.16 181.552 1311.6 180 1310.05 180H1262.95C1261.4 180 1259.84 181.552 1259.84 183.103V428.793C1259.84 430.345 1260.88 431.896 1262.43 431.896H1314.19C1315.74 431.896 1317.3 430.862 1317.3 428.793V301.034C1317.3 252.414 1341.62 231.207 1382 231.207C1385.62 231.207 1389.24 231.724 1391.83 231.724C1393.39 231.724 1394.94 230.689 1395.46 229.138L1394.94 180.517ZM1027.44 408.62C1027.44 406.552 1029.51 405.517 1031.06 405.517C1032.1 405.517 1032.61 406.034 1033.13 406.552C1048.14 424.138 1073.51 437.069 1107.15 437.069C1181.68 437.069 1223.61 377.586 1223.61 305.689C1223.61 233.793 1181.68 173.793 1107.15 173.793C1072.99 173.793 1045.55 186.207 1028.47 207.414C1027.44 208.965 1025.37 208.965 1023.82 207.931C1023.3 207.414 1022.78 206.379 1022.78 205.345V182.586C1022.78 181.034 1021.23 179.483 1019.67 179.483H972.572C971.02 179.483 969.467 181.034 969.467 182.586V529.138C969.467 530.689 971.02 532.241 972.572 532.241H1024.33C1025.89 532.241 1027.44 530.689 1027.44 529.138V408.62ZM1025.37 305.689C1025.37 259.138 1051.77 223.965 1095.76 223.965C1139.76 223.965 1166.16 259.138 1166.16 305.689C1166.16 350.689 1139.24 386.379 1095.76 386.379C1052.28 386.379 1025.37 350.689 1025.37 305.689Z" fill="#000C2C"/>
</svg>
